<mxfile host="app.diagrams.net" modified="2023-05-26T11:31:02.617Z" agent="Mozilla/5.0 (Windows NT 10.0; Win64; x64) AppleWebKit/537.36 (KHTML, like Gecko) Chrome/112.0.0.0 Safari/537.36 OPR/98.0.0.0" etag="IE8c0D9bbeGAXaF0hhIz" version="21.3.4" type="github">
  <diagram name="PÃ¡gina-1" id="hQvVK7cvd6CQwP3TDFYW">
    <mxGraphModel dx="3149" dy="1293" grid="1" gridSize="10" guides="1" tooltips="1" connect="1" arrows="1" fold="1" page="1" pageScale="1" pageWidth="827" pageHeight="1169" math="0" shadow="0">
      <root>
        <mxCell id="0" />
        <mxCell id="1" parent="0" />
        <mxCell id="j9FKQ9DVJ2H4PCv3UH9r-18" style="edgeStyle=none;shape=connector;rounded=0;orthogonalLoop=1;jettySize=auto;html=1;labelBackgroundColor=default;strokeColor=default;fontFamily=Helvetica;fontSize=11;fontColor=default;endArrow=none;endFill=0;" edge="1" parent="1" source="j9FKQ9DVJ2H4PCv3UH9r-4" target="j9FKQ9DVJ2H4PCv3UH9r-17">
          <mxGeometry relative="1" as="geometry" />
        </mxCell>
        <mxCell id="j9FKQ9DVJ2H4PCv3UH9r-27" style="edgeStyle=none;shape=connector;rounded=0;orthogonalLoop=1;jettySize=auto;html=1;labelBackgroundColor=default;strokeColor=default;fontFamily=Helvetica;fontSize=11;fontColor=default;endArrow=none;endFill=0;" edge="1" parent="1" source="j9FKQ9DVJ2H4PCv3UH9r-4" target="j9FKQ9DVJ2H4PCv3UH9r-22">
          <mxGeometry relative="1" as="geometry" />
        </mxCell>
        <mxCell id="j9FKQ9DVJ2H4PCv3UH9r-28" style="edgeStyle=none;shape=connector;rounded=0;orthogonalLoop=1;jettySize=auto;html=1;entryX=1;entryY=0.5;entryDx=0;entryDy=0;labelBackgroundColor=default;strokeColor=default;fontFamily=Helvetica;fontSize=11;fontColor=default;endArrow=none;endFill=0;" edge="1" parent="1" source="j9FKQ9DVJ2H4PCv3UH9r-4" target="j9FKQ9DVJ2H4PCv3UH9r-23">
          <mxGeometry relative="1" as="geometry" />
        </mxCell>
        <mxCell id="j9FKQ9DVJ2H4PCv3UH9r-29" style="edgeStyle=none;shape=connector;rounded=0;orthogonalLoop=1;jettySize=auto;html=1;entryX=1;entryY=0.5;entryDx=0;entryDy=0;labelBackgroundColor=default;strokeColor=default;fontFamily=Helvetica;fontSize=11;fontColor=default;endArrow=none;endFill=0;" edge="1" parent="1" source="j9FKQ9DVJ2H4PCv3UH9r-4" target="j9FKQ9DVJ2H4PCv3UH9r-20">
          <mxGeometry relative="1" as="geometry" />
        </mxCell>
        <mxCell id="j9FKQ9DVJ2H4PCv3UH9r-42" style="edgeStyle=none;shape=connector;rounded=0;orthogonalLoop=1;jettySize=auto;html=1;entryX=0.5;entryY=0;entryDx=0;entryDy=0;labelBackgroundColor=default;strokeColor=default;fontFamily=Helvetica;fontSize=11;fontColor=default;endArrow=none;endFill=0;" edge="1" parent="1" source="j9FKQ9DVJ2H4PCv3UH9r-4" target="j9FKQ9DVJ2H4PCv3UH9r-41">
          <mxGeometry relative="1" as="geometry" />
        </mxCell>
        <mxCell id="j9FKQ9DVJ2H4PCv3UH9r-59" style="edgeStyle=none;shape=connector;rounded=0;orthogonalLoop=1;jettySize=auto;html=1;entryX=0;entryY=0.5;entryDx=0;entryDy=0;labelBackgroundColor=default;strokeColor=default;fontFamily=Helvetica;fontSize=11;fontColor=default;endArrow=none;endFill=0;" edge="1" parent="1" source="j9FKQ9DVJ2H4PCv3UH9r-4" target="j9FKQ9DVJ2H4PCv3UH9r-58">
          <mxGeometry relative="1" as="geometry" />
        </mxCell>
        <mxCell id="j9FKQ9DVJ2H4PCv3UH9r-4" value="Vendedor" style="shape=umlActor;verticalLabelPosition=bottom;verticalAlign=top;html=1;outlineConnect=0;" vertex="1" parent="1">
          <mxGeometry x="-519" y="210" width="40" height="80" as="geometry" />
        </mxCell>
        <mxCell id="j9FKQ9DVJ2H4PCv3UH9r-5" value="Administrador" style="shape=umlActor;verticalLabelPosition=bottom;verticalAlign=top;html=1;outlineConnect=0;" vertex="1" parent="1">
          <mxGeometry x="-320" y="630" width="41" height="80" as="geometry" />
        </mxCell>
        <mxCell id="j9FKQ9DVJ2H4PCv3UH9r-19" style="edgeStyle=none;shape=connector;rounded=0;orthogonalLoop=1;jettySize=auto;html=1;entryX=0.889;entryY=0.896;entryDx=0;entryDy=0;entryPerimeter=0;labelBackgroundColor=default;strokeColor=default;fontFamily=Helvetica;fontSize=11;fontColor=default;endArrow=none;endFill=0;" edge="1" parent="1" source="j9FKQ9DVJ2H4PCv3UH9r-6" target="j9FKQ9DVJ2H4PCv3UH9r-17">
          <mxGeometry relative="1" as="geometry" />
        </mxCell>
        <mxCell id="j9FKQ9DVJ2H4PCv3UH9r-66" style="edgeStyle=none;shape=connector;rounded=0;orthogonalLoop=1;jettySize=auto;html=1;entryX=0.5;entryY=1;entryDx=0;entryDy=0;labelBackgroundColor=default;strokeColor=default;fontFamily=Helvetica;fontSize=11;fontColor=default;endArrow=none;endFill=0;" edge="1" parent="1" source="j9FKQ9DVJ2H4PCv3UH9r-6" target="j9FKQ9DVJ2H4PCv3UH9r-54">
          <mxGeometry relative="1" as="geometry" />
        </mxCell>
        <mxCell id="j9FKQ9DVJ2H4PCv3UH9r-67" style="edgeStyle=none;shape=connector;rounded=0;orthogonalLoop=1;jettySize=auto;html=1;entryX=0;entryY=0.5;entryDx=0;entryDy=0;labelBackgroundColor=default;strokeColor=default;fontFamily=Helvetica;fontSize=11;fontColor=default;endArrow=none;endFill=0;" edge="1" parent="1" source="j9FKQ9DVJ2H4PCv3UH9r-6" target="j9FKQ9DVJ2H4PCv3UH9r-55">
          <mxGeometry relative="1" as="geometry" />
        </mxCell>
        <mxCell id="j9FKQ9DVJ2H4PCv3UH9r-68" style="edgeStyle=none;shape=connector;rounded=0;orthogonalLoop=1;jettySize=auto;html=1;entryX=0;entryY=0.5;entryDx=0;entryDy=0;labelBackgroundColor=default;strokeColor=default;fontFamily=Helvetica;fontSize=11;fontColor=default;endArrow=none;endFill=0;" edge="1" parent="1" source="j9FKQ9DVJ2H4PCv3UH9r-6" target="j9FKQ9DVJ2H4PCv3UH9r-56">
          <mxGeometry relative="1" as="geometry" />
        </mxCell>
        <mxCell id="j9FKQ9DVJ2H4PCv3UH9r-81" style="edgeStyle=none;shape=connector;rounded=0;orthogonalLoop=1;jettySize=auto;html=1;entryX=1;entryY=0.5;entryDx=0;entryDy=0;labelBackgroundColor=default;strokeColor=default;fontFamily=Helvetica;fontSize=11;fontColor=default;endArrow=none;endFill=0;" edge="1" parent="1" source="j9FKQ9DVJ2H4PCv3UH9r-6" target="j9FKQ9DVJ2H4PCv3UH9r-58">
          <mxGeometry relative="1" as="geometry" />
        </mxCell>
        <mxCell id="j9FKQ9DVJ2H4PCv3UH9r-82" style="edgeStyle=none;shape=connector;rounded=0;orthogonalLoop=1;jettySize=auto;html=1;entryX=0.5;entryY=1;entryDx=0;entryDy=0;labelBackgroundColor=default;strokeColor=default;fontFamily=Helvetica;fontSize=11;fontColor=default;endArrow=none;endFill=0;" edge="1" parent="1" source="j9FKQ9DVJ2H4PCv3UH9r-6" target="j9FKQ9DVJ2H4PCv3UH9r-52">
          <mxGeometry relative="1" as="geometry" />
        </mxCell>
        <mxCell id="j9FKQ9DVJ2H4PCv3UH9r-89" style="edgeStyle=none;shape=connector;rounded=0;orthogonalLoop=1;jettySize=auto;html=1;labelBackgroundColor=default;strokeColor=default;fontFamily=Helvetica;fontSize=11;fontColor=default;endArrow=none;endFill=0;" edge="1" parent="1" source="j9FKQ9DVJ2H4PCv3UH9r-6" target="j9FKQ9DVJ2H4PCv3UH9r-70">
          <mxGeometry relative="1" as="geometry" />
        </mxCell>
        <mxCell id="j9FKQ9DVJ2H4PCv3UH9r-6" value="Comprador" style="shape=umlActor;verticalLabelPosition=bottom;verticalAlign=top;html=1;outlineConnect=0;" vertex="1" parent="1">
          <mxGeometry x="-9.5" y="220" width="40" height="80" as="geometry" />
        </mxCell>
        <mxCell id="j9FKQ9DVJ2H4PCv3UH9r-14" style="edgeStyle=none;shape=connector;rounded=0;orthogonalLoop=1;jettySize=auto;html=1;labelBackgroundColor=default;strokeColor=default;fontFamily=Helvetica;fontSize=11;fontColor=default;endArrow=none;endFill=0;" edge="1" parent="1" source="j9FKQ9DVJ2H4PCv3UH9r-13" target="j9FKQ9DVJ2H4PCv3UH9r-6">
          <mxGeometry relative="1" as="geometry" />
        </mxCell>
        <mxCell id="j9FKQ9DVJ2H4PCv3UH9r-15" style="edgeStyle=none;shape=connector;rounded=0;orthogonalLoop=1;jettySize=auto;html=1;labelBackgroundColor=default;strokeColor=default;fontFamily=Helvetica;fontSize=11;fontColor=default;endArrow=none;endFill=0;" edge="1" parent="1" source="j9FKQ9DVJ2H4PCv3UH9r-13" target="j9FKQ9DVJ2H4PCv3UH9r-4">
          <mxGeometry relative="1" as="geometry" />
        </mxCell>
        <mxCell id="j9FKQ9DVJ2H4PCv3UH9r-16" style="edgeStyle=none;shape=connector;rounded=0;orthogonalLoop=1;jettySize=auto;html=1;labelBackgroundColor=default;strokeColor=default;fontFamily=Helvetica;fontSize=11;fontColor=default;endArrow=none;endFill=0;" edge="1" parent="1" source="j9FKQ9DVJ2H4PCv3UH9r-13" target="j9FKQ9DVJ2H4PCv3UH9r-5">
          <mxGeometry relative="1" as="geometry" />
        </mxCell>
        <mxCell id="j9FKQ9DVJ2H4PCv3UH9r-13" value="Login" style="ellipse;whiteSpace=wrap;html=1;fontFamily=Helvetica;fontSize=11;fontColor=default;" vertex="1" parent="1">
          <mxGeometry x="-369.5" y="310" width="140" height="70" as="geometry" />
        </mxCell>
        <mxCell id="j9FKQ9DVJ2H4PCv3UH9r-17" value="Realizar Cadastro" style="ellipse;whiteSpace=wrap;html=1;fontFamily=Helvetica;fontSize=11;fontColor=default;" vertex="1" parent="1">
          <mxGeometry x="-369.5" y="110" width="140" height="70" as="geometry" />
        </mxCell>
        <mxCell id="j9FKQ9DVJ2H4PCv3UH9r-34" style="edgeStyle=none;shape=connector;rounded=0;orthogonalLoop=1;jettySize=auto;html=1;exitX=0.5;exitY=0;exitDx=0;exitDy=0;labelBackgroundColor=default;strokeColor=default;fontFamily=Helvetica;fontSize=11;fontColor=default;endArrow=open;endFill=0;dashed=1;" edge="1" parent="1" source="j9FKQ9DVJ2H4PCv3UH9r-20">
          <mxGeometry relative="1" as="geometry">
            <mxPoint x="-679" y="360" as="targetPoint" />
            <Array as="points">
              <mxPoint x="-679" y="360" />
              <mxPoint x="-679" y="280" />
            </Array>
          </mxGeometry>
        </mxCell>
        <mxCell id="j9FKQ9DVJ2H4PCv3UH9r-40" value="&amp;lt;&amp;lt;extend&amp;gt;&amp;gt;" style="edgeLabel;html=1;align=center;verticalAlign=middle;resizable=0;points=[];fontSize=11;fontFamily=Helvetica;fontColor=default;" vertex="1" connectable="0" parent="j9FKQ9DVJ2H4PCv3UH9r-34">
          <mxGeometry x="0.6313" y="1" relative="1" as="geometry">
            <mxPoint x="-1" y="-10" as="offset" />
          </mxGeometry>
        </mxCell>
        <mxCell id="j9FKQ9DVJ2H4PCv3UH9r-20" value="Excluir Produto" style="ellipse;whiteSpace=wrap;html=1;fontFamily=Helvetica;fontSize=11;fontColor=default;" vertex="1" parent="1">
          <mxGeometry x="-749" y="360" width="140" height="70" as="geometry" />
        </mxCell>
        <mxCell id="j9FKQ9DVJ2H4PCv3UH9r-25" style="edgeStyle=none;shape=connector;rounded=0;orthogonalLoop=1;jettySize=auto;html=1;entryX=0.5;entryY=1;entryDx=0;entryDy=0;labelBackgroundColor=default;strokeColor=default;fontFamily=Helvetica;fontSize=11;fontColor=default;endArrow=open;endFill=0;dashed=1;" edge="1" parent="1" source="j9FKQ9DVJ2H4PCv3UH9r-22" target="j9FKQ9DVJ2H4PCv3UH9r-23">
          <mxGeometry relative="1" as="geometry">
            <Array as="points">
              <mxPoint x="-679" y="180" />
            </Array>
          </mxGeometry>
        </mxCell>
        <mxCell id="j9FKQ9DVJ2H4PCv3UH9r-39" value="&amp;lt;&amp;lt;extend&amp;gt;&amp;gt;" style="edgeLabel;html=1;align=center;verticalAlign=middle;resizable=0;points=[];fontSize=11;fontFamily=Helvetica;fontColor=default;" vertex="1" connectable="0" parent="j9FKQ9DVJ2H4PCv3UH9r-25">
          <mxGeometry x="-0.3333" relative="1" as="geometry">
            <mxPoint y="-10" as="offset" />
          </mxGeometry>
        </mxCell>
        <mxCell id="j9FKQ9DVJ2H4PCv3UH9r-22" value="Cadastrar Produto" style="ellipse;whiteSpace=wrap;html=1;fontFamily=Helvetica;fontSize=11;fontColor=default;" vertex="1" parent="1">
          <mxGeometry x="-749" y="215" width="140" height="70" as="geometry" />
        </mxCell>
        <mxCell id="j9FKQ9DVJ2H4PCv3UH9r-23" value="Editar Produtos JÃ¡ cadastrados" style="ellipse;whiteSpace=wrap;html=1;fontFamily=Helvetica;fontSize=11;fontColor=default;" vertex="1" parent="1">
          <mxGeometry x="-749" y="70" width="140" height="70" as="geometry" />
        </mxCell>
        <mxCell id="j9FKQ9DVJ2H4PCv3UH9r-41" value="Verificar Vendas &lt;br&gt;Realizadas&lt;br&gt;e Dados dos produtos&amp;nbsp;" style="ellipse;whiteSpace=wrap;html=1;fontFamily=Helvetica;fontSize=11;fontColor=default;" vertex="1" parent="1">
          <mxGeometry x="-569" y="430" width="140" height="70" as="geometry" />
        </mxCell>
        <mxCell id="j9FKQ9DVJ2H4PCv3UH9r-46" style="edgeStyle=none;shape=connector;rounded=0;orthogonalLoop=1;jettySize=auto;html=1;labelBackgroundColor=default;strokeColor=default;fontFamily=Helvetica;fontSize=11;fontColor=default;endArrow=none;endFill=0;" edge="1" parent="1" source="j9FKQ9DVJ2H4PCv3UH9r-43" target="j9FKQ9DVJ2H4PCv3UH9r-5">
          <mxGeometry relative="1" as="geometry" />
        </mxCell>
        <mxCell id="j9FKQ9DVJ2H4PCv3UH9r-43" value="Realizar ManutenÃ§Ã£o&amp;nbsp;&lt;br&gt;no&lt;br&gt;sistema" style="ellipse;whiteSpace=wrap;html=1;fontFamily=Helvetica;fontSize=11;fontColor=default;" vertex="1" parent="1">
          <mxGeometry x="-509.5" y="720" width="140" height="70" as="geometry" />
        </mxCell>
        <mxCell id="j9FKQ9DVJ2H4PCv3UH9r-45" style="edgeStyle=none;shape=connector;rounded=0;orthogonalLoop=1;jettySize=auto;html=1;labelBackgroundColor=default;strokeColor=default;fontFamily=Helvetica;fontSize=11;fontColor=default;endArrow=none;endFill=0;" edge="1" parent="1" source="j9FKQ9DVJ2H4PCv3UH9r-44" target="j9FKQ9DVJ2H4PCv3UH9r-5">
          <mxGeometry relative="1" as="geometry" />
        </mxCell>
        <mxCell id="j9FKQ9DVJ2H4PCv3UH9r-49" style="edgeStyle=none;shape=connector;rounded=0;orthogonalLoop=1;jettySize=auto;html=1;entryX=0.5;entryY=1;entryDx=0;entryDy=0;labelBackgroundColor=default;strokeColor=default;fontFamily=Helvetica;fontSize=11;fontColor=default;endArrow=open;endFill=0;dashed=1;" edge="1" parent="1" source="j9FKQ9DVJ2H4PCv3UH9r-44" target="j9FKQ9DVJ2H4PCv3UH9r-47">
          <mxGeometry relative="1" as="geometry" />
        </mxCell>
        <mxCell id="j9FKQ9DVJ2H4PCv3UH9r-50" value="&amp;lt;&amp;lt;extend&amp;gt;&amp;gt;" style="edgeLabel;html=1;align=center;verticalAlign=middle;resizable=0;points=[];fontSize=11;fontFamily=Helvetica;fontColor=default;" vertex="1" connectable="0" parent="j9FKQ9DVJ2H4PCv3UH9r-49">
          <mxGeometry x="-0.543" y="2" relative="1" as="geometry">
            <mxPoint x="33" y="-17" as="offset" />
          </mxGeometry>
        </mxCell>
        <mxCell id="j9FKQ9DVJ2H4PCv3UH9r-44" value="Verificar e Responder&lt;br&gt;solicitaÃ§Ãµes de suporte&lt;br&gt;e denuncias" style="ellipse;whiteSpace=wrap;html=1;fontFamily=Helvetica;fontSize=11;fontColor=default;" vertex="1" parent="1">
          <mxGeometry x="-369.5" y="820" width="140" height="70" as="geometry" />
        </mxCell>
        <mxCell id="j9FKQ9DVJ2H4PCv3UH9r-48" style="edgeStyle=none;shape=connector;rounded=0;orthogonalLoop=1;jettySize=auto;html=1;labelBackgroundColor=default;strokeColor=default;fontFamily=Helvetica;fontSize=11;fontColor=default;endArrow=none;endFill=0;" edge="1" parent="1" source="j9FKQ9DVJ2H4PCv3UH9r-47" target="j9FKQ9DVJ2H4PCv3UH9r-5">
          <mxGeometry relative="1" as="geometry" />
        </mxCell>
        <mxCell id="j9FKQ9DVJ2H4PCv3UH9r-47" value="Bloquear Produtos de usuÃ¡rios&amp;nbsp;" style="ellipse;whiteSpace=wrap;html=1;fontFamily=Helvetica;fontSize=11;fontColor=default;" vertex="1" parent="1">
          <mxGeometry x="-229.5" y="710" width="140" height="70" as="geometry" />
        </mxCell>
        <mxCell id="j9FKQ9DVJ2H4PCv3UH9r-52" value="Pesquisar e Receber recomendaÃ§Ãµes de produtos" style="ellipse;whiteSpace=wrap;html=1;fontFamily=Helvetica;fontSize=11;fontColor=default;" vertex="1" parent="1">
          <mxGeometry x="-89.5" y="50" width="140" height="70" as="geometry" />
        </mxCell>
        <mxCell id="j9FKQ9DVJ2H4PCv3UH9r-54" value="Favorita Produtos na lista de desejos&amp;nbsp;" style="ellipse;whiteSpace=wrap;html=1;fontFamily=Helvetica;fontSize=11;fontColor=default;" vertex="1" parent="1">
          <mxGeometry x="60" y="50" width="140" height="70" as="geometry" />
        </mxCell>
        <mxCell id="j9FKQ9DVJ2H4PCv3UH9r-55" value="Adicionar Produto ao carrinho" style="ellipse;whiteSpace=wrap;html=1;fontFamily=Helvetica;fontSize=11;fontColor=default;" vertex="1" parent="1">
          <mxGeometry x="209.5" y="100" width="140" height="70" as="geometry" />
        </mxCell>
        <mxCell id="j9FKQ9DVJ2H4PCv3UH9r-61" style="edgeStyle=none;shape=connector;rounded=0;orthogonalLoop=1;jettySize=auto;html=1;entryX=0.5;entryY=1;entryDx=0;entryDy=0;labelBackgroundColor=default;strokeColor=default;fontFamily=Helvetica;fontSize=11;fontColor=default;endArrow=open;endFill=0;dashed=1;" edge="1" parent="1" source="j9FKQ9DVJ2H4PCv3UH9r-56" target="j9FKQ9DVJ2H4PCv3UH9r-55">
          <mxGeometry relative="1" as="geometry" />
        </mxCell>
        <mxCell id="j9FKQ9DVJ2H4PCv3UH9r-63" value="&amp;lt;&amp;lt;include&amp;gt;&amp;gt;" style="edgeLabel;html=1;align=center;verticalAlign=middle;resizable=0;points=[];fontSize=11;fontFamily=Helvetica;fontColor=default;" vertex="1" connectable="0" parent="j9FKQ9DVJ2H4PCv3UH9r-61">
          <mxGeometry x="0.3969" relative="1" as="geometry">
            <mxPoint y="12" as="offset" />
          </mxGeometry>
        </mxCell>
        <mxCell id="j9FKQ9DVJ2H4PCv3UH9r-56" value="Realizar Pedido" style="ellipse;whiteSpace=wrap;html=1;fontFamily=Helvetica;fontSize=11;fontColor=default;" vertex="1" parent="1">
          <mxGeometry x="209.5" y="230" width="140" height="70" as="geometry" />
        </mxCell>
        <mxCell id="j9FKQ9DVJ2H4PCv3UH9r-86" style="edgeStyle=none;shape=connector;rounded=0;orthogonalLoop=1;jettySize=auto;html=1;labelBackgroundColor=default;strokeColor=default;fontFamily=Helvetica;fontSize=11;fontColor=default;endArrow=none;endFill=0;" edge="1" parent="1" source="j9FKQ9DVJ2H4PCv3UH9r-57" target="j9FKQ9DVJ2H4PCv3UH9r-6">
          <mxGeometry relative="1" as="geometry" />
        </mxCell>
        <mxCell id="j9FKQ9DVJ2H4PCv3UH9r-90" style="edgeStyle=none;shape=connector;rounded=0;orthogonalLoop=1;jettySize=auto;html=1;entryX=0.5;entryY=1;entryDx=0;entryDy=0;labelBackgroundColor=default;strokeColor=default;fontFamily=Helvetica;fontSize=11;fontColor=default;endArrow=open;endFill=0;dashed=1;" edge="1" parent="1" source="j9FKQ9DVJ2H4PCv3UH9r-57" target="j9FKQ9DVJ2H4PCv3UH9r-71">
          <mxGeometry relative="1" as="geometry" />
        </mxCell>
        <mxCell id="j9FKQ9DVJ2H4PCv3UH9r-92" value="&amp;lt;&amp;lt;include&amp;gt;&amp;gt;" style="edgeLabel;html=1;align=center;verticalAlign=middle;resizable=0;points=[];fontSize=11;fontFamily=Helvetica;fontColor=default;" vertex="1" connectable="0" parent="j9FKQ9DVJ2H4PCv3UH9r-90">
          <mxGeometry x="-0.3775" relative="1" as="geometry">
            <mxPoint x="18" y="-8" as="offset" />
          </mxGeometry>
        </mxCell>
        <mxCell id="j9FKQ9DVJ2H4PCv3UH9r-91" style="edgeStyle=none;shape=connector;rounded=0;orthogonalLoop=1;jettySize=auto;html=1;entryX=0.5;entryY=1;entryDx=0;entryDy=0;labelBackgroundColor=default;strokeColor=default;fontFamily=Helvetica;fontSize=11;fontColor=default;endArrow=open;endFill=0;startArrow=none;startFill=0;dashed=1;" edge="1" parent="1" source="j9FKQ9DVJ2H4PCv3UH9r-57" target="j9FKQ9DVJ2H4PCv3UH9r-70">
          <mxGeometry relative="1" as="geometry" />
        </mxCell>
        <mxCell id="j9FKQ9DVJ2H4PCv3UH9r-93" value="&amp;lt;&amp;lt;include&amp;gt;&amp;gt;" style="edgeLabel;html=1;align=center;verticalAlign=middle;resizable=0;points=[];fontSize=11;fontFamily=Helvetica;fontColor=default;" vertex="1" connectable="0" parent="j9FKQ9DVJ2H4PCv3UH9r-91">
          <mxGeometry x="-0.2316" y="1" relative="1" as="geometry">
            <mxPoint x="-7" y="-5" as="offset" />
          </mxGeometry>
        </mxCell>
        <mxCell id="j9FKQ9DVJ2H4PCv3UH9r-57" value="Visualizar histÃ³rico de pedidos&lt;br&gt;e detalhes de pedidos&lt;br&gt;feitos" style="ellipse;whiteSpace=wrap;html=1;fontFamily=Helvetica;fontSize=11;fontColor=default;" vertex="1" parent="1">
          <mxGeometry x="-59.5" y="480" width="140" height="70" as="geometry" />
        </mxCell>
        <mxCell id="j9FKQ9DVJ2H4PCv3UH9r-58" value="Conversa no chat" style="ellipse;whiteSpace=wrap;html=1;fontFamily=Helvetica;fontSize=11;fontColor=default;" vertex="1" parent="1">
          <mxGeometry x="-369.5" y="215" width="140" height="70" as="geometry" />
        </mxCell>
        <mxCell id="j9FKQ9DVJ2H4PCv3UH9r-70" value="realizar cancelamento&lt;br&gt;&amp;nbsp;de&amp;nbsp; &lt;br&gt;Pedido" style="ellipse;whiteSpace=wrap;html=1;fontFamily=Helvetica;fontSize=11;fontColor=default;" vertex="1" parent="1">
          <mxGeometry x="-180" y="370" width="140" height="70" as="geometry" />
        </mxCell>
        <mxCell id="j9FKQ9DVJ2H4PCv3UH9r-85" style="edgeStyle=none;shape=connector;rounded=0;orthogonalLoop=1;jettySize=auto;html=1;labelBackgroundColor=default;strokeColor=default;fontFamily=Helvetica;fontSize=11;fontColor=default;endArrow=none;endFill=0;" edge="1" parent="1" source="j9FKQ9DVJ2H4PCv3UH9r-71" target="j9FKQ9DVJ2H4PCv3UH9r-6">
          <mxGeometry relative="1" as="geometry" />
        </mxCell>
        <mxCell id="j9FKQ9DVJ2H4PCv3UH9r-71" value="Avaliar Pedido" style="ellipse;whiteSpace=wrap;html=1;fontFamily=Helvetica;fontSize=11;fontColor=default;" vertex="1" parent="1">
          <mxGeometry x="69.5" y="370" width="140" height="70" as="geometry" />
        </mxCell>
      </root>
    </mxGraphModel>
  </diagram>
</mxfile>
